<?xml version="1.0" encoding="utf-8"?>
<!-- Svg Vector Icons : http://www.onlinewebfonts.com/icon -->
<!DOCTYPE svg PUBLIC "-//W3C//DTD SVG 1.1//EN" "http://www.w3.org/Graphics/SVG/1.1/DTD/svg11.dtd">
<svg version="1.1" xmlns="http://www.w3.org/2000/svg" xmlns:xlink="http://www.w3.org/1999/xlink" x="0px" y="0px" viewBox="0 0 1000 1000" enable-background="new 0 0 1000 1000" xml:space="preserve">
<metadata> Svg Vector Icons : http://www.onlinewebfonts.com/icon </metadata>
<g><g><g><path d="M938.2,773.7c0.9-12-2.5-30.7-7.5-41.7L877,613.4c-5-11.1-9.9-20.1-10.8-20.1c-0.8,0-1.1,0-0.6,0c0.1,0,0.1,0,0.2,0l0,0c0.7,0-1.5-9.4-5-20.9l-12.4-40.9c-3.5-11.6-15.4-26.2-24.3-35c-38.1-37.9-48.6-104.7-88.7-104.7c-0.1,0-0.2,0-0.3,0c-45.5,0.1-78.1,33.2-78.1,74.7c0,0-3.6,63,28.9,108.6c7.2,10,16.9,26.5,19.5,38.2l5.3,24.3c2.6,11.8-6,21.3-19.1,21.3H466.3H345c-13.1,0-31-7.1-39.8-16c-20.1-19.9-54.1-53.7-75.9-75.3c-1.4-1.4-2.9-2.9-4.2-4.1c-8.9-8.8-16.2-25.7-16.2-37.7v-61.5c0-33.7-35-61.1-78.2-61.1c-43.2,0-78.2,27.3-78.2,61.1v61.5c0,12,1.5,31.4,3.3,43.3c3,19.7,7.5,48.6,10.6,68.3c1.9,11.9,11.7,27.6,21.9,35.1l151.8,111.3c10.2,7.5,29.1,14.4,42.2,15.4L516,817.1c13.1,1,26.2,11.3,29.3,22.9l34.2,128.8c3.1,11.7,16.2,21.1,29.3,21.1H922c13.1,0,24.5-9.7,25.4-21.7L934.5,823L938.2,773.7z"/><path d="M245.3,56.1v154.4l-120.2,102l104.2,0.1v113.1c6.5,11.7,10.3,24.6,10.3,38.4v61.5c0,3.6,3.8,12.6,7.1,15.9l80.1,79.4c2.9,2.9,12.9,7.1,18.3,7.1h58V422h158.3v206.1h116l-1.8-8.4c-1-4.6-6.9-16.3-14.5-27c-36.4-51-35-117.9-34.6-127.1c0.4-58.6,48-104.4,108.7-104.6v-47.7l104.2,0.1L481.7,10L337.2,132.6V56.1H245.3z"/></g></g><g></g><g></g><g></g><g></g><g></g><g></g><g></g><g></g><g></g><g></g><g></g><g></g><g></g><g></g><g></g></g>
</svg>