<?xml version="1.0" encoding="utf-8"?>
<!-- Svg Vector Icons : http://www.onlinewebfonts.com/icon -->
<!DOCTYPE svg PUBLIC "-//W3C//DTD SVG 1.1//EN" "http://www.w3.org/Graphics/SVG/1.1/DTD/svg11.dtd">
<svg version="1.1" xmlns="http://www.w3.org/2000/svg" xmlns:xlink="http://www.w3.org/1999/xlink" x="0px" y="0px" viewBox="0 0 1000 1000" enable-background="new 0 0 1000 1000" xml:space="preserve">
<metadata> Svg Vector Icons : http://www.onlinewebfonts.com/icon </metadata>
<g><path d="M938.5,677.9l1.5-433.8l-800.7,0.5l0-49.8H990V678L938.5,677.9z M912.5,754.2l-51.5-0.1l1.5-433.8l-800.7,0.5l0-49.7h850.8V754.2z M836.6,805.1H10V347.5h826.6V805.1z M785,396.7H61.7v357.5H785L785,396.7L785,396.7z M707.5,716.1c0,4.5,1.2,8.7,2.6,12.7H423.3c71.3,0,129.2-68.3,129.2-152.5c0-84.3-57.8-152.5-129.2-152.5h286.8c-1.5,4-2.6,8.2-2.6,12.7c0,21.1,17.4,38.1,38.8,38.1c4.6,0,8.8-1.1,12.9-2.6v208.5c-4.1-1.4-8.3-2.6-12.9-2.6C724.8,678,707.5,695.1,707.5,716.1z M655.8,523.3c-21.4,0-38.7,22.8-38.7,50.8c0,28.1,17.4,50.8,38.7,50.8c21.4,0,38.8-22.8,38.8-50.8C694.5,546.1,677.2,523.3,655.8,523.3z M477.4,484.6c0.4,0.7,0.7,1.7,1,2.9c0.3,1.2,0.5,2.8,0.6,4.6c0.1,1.8,0.2,4.2,0.2,6.9c0,3.1-0.1,5.7-0.2,7.8c-0.2,2.1-0.4,3.9-0.8,5.3c-0.4,1.4-0.9,2.4-1.6,3c-0.7,0.6-1.6,1-2.8,1c-1.2,0-3.1-0.7-5.6-2.2c-2.6-1.5-5.8-3.1-9.5-4.8c-3.8-1.8-8.1-3.3-13.1-4.7c-5-1.4-10.4-2.1-16.3-2.1c-4.6,0-8.7,0.5-12.1,1.7c-3.4,1.1-6.3,2.6-8.6,4.6c-2.3,1.9-4,4.3-5.2,7c-1.1,2.7-1.7,5.6-1.7,8.7c0,4.6,1.3,8.5,3.8,11.8c2.5,3.3,5.9,6.3,10.2,8.9c4.2,2.6,9.1,5,14.4,7.3c5.4,2.3,10.9,4.7,16.4,7.2c5.6,2.5,11.1,5.4,16.5,8.6c5.4,3.2,10.2,7.1,14.4,11.6c4.2,4.5,7.6,9.8,10.2,15.9c2.6,6.1,3.9,13.3,3.9,21.5c0,10.8-2.1,20.3-6.1,28.4c-4.1,8.2-9.6,15-16.6,20.4c-7,5.5-15.2,9.6-24.5,12.3c-1.2,0.3-2.5,0.5-3.7,0.8v27.8h-25.4v-24.5c-0.3,0-0.6,0.1-0.9,0.1c-7.2,0-13.9-0.6-20.1-1.7c-6.2-1.2-11.7-2.5-16.4-4.2c-4.7-1.6-8.7-3.3-11.9-5.1c-3.2-1.8-5.5-3.3-6.8-4.7c-1.4-1.4-2.4-3.3-3-5.9c-0.6-2.6-0.9-6.3-0.9-11.2c0-3.3,0.1-6,0.3-8.3c0.2-2.2,0.6-4,1-5.4c0.5-1.4,1.1-2.3,1.9-2.9c0.8-0.6,1.8-0.9,2.8-0.9c1.5,0,3.6,0.9,6.4,2.6c2.7,1.7,6.3,3.7,10.6,5.8c4.3,2.1,9.4,4,15.4,5.8c6,1.8,12.9,2.6,20.7,2.6c5.2,0,9.8-0.6,13.9-1.8c4.1-1.2,7.5-2.9,10.4-5.2c2.9-2.2,5-5,6.5-8.3c1.5-3.3,2.3-7,2.3-11c0-4.7-1.3-8.7-3.9-12c-2.6-3.3-5.9-6.3-10.1-8.9c-4.1-2.6-8.8-5-14.1-7.3c-5.3-2.3-10.7-4.7-16.3-7.2c-5.6-2.5-11-5.4-16.3-8.7s-10-7.1-14.1-11.6c-4.1-4.5-7.5-9.8-10.1-16c-2.6-6.1-3.9-13.5-3.9-22.1c0-9.8,1.9-18.5,5.6-26c3.7-7.5,8.7-13.7,15-18.6c6.3-4.9,13.7-8.6,22.3-11c4.4-1.2,8.9-2.2,13.6-2.8v-26.3h25.4v26.3c1,0.1,2,0.1,3,0.2c5,0.7,9.6,1.7,13.9,3c4.3,1.3,8.1,2.7,11.5,4.2c3.3,1.6,5.5,2.9,6.6,4C476.3,483,477,483.9,477.4,484.6z M294.1,576.3c0,84.3,57.8,152.5,129.2,152.5H136.6c1.4-4,2.6-8.2,2.6-12.7c0-21.1-17.4-38.1-38.7-38.1c-4.6,0-8.8,1.1-12.9,2.6V472c4.1,1.4,8.3,2.6,12.9,2.6c21.4,0,38.7-17.1,38.7-38.1c0-4.5-1.2-8.7-2.6-12.7l286.8,0C352,423.7,294.1,492,294.1,576.3z M190.8,523.3c-21.4,0-38.8,22.8-38.8,50.8c0,28.1,17.4,50.8,38.8,50.8c21.4,0,38.8-22.8,38.8-50.8C229.6,546.1,212.2,523.3,190.8,523.3z"/></g>
</svg>