<?xml version="1.0" encoding="utf-8"?>
<!-- Svg Vector Icons : http://www.onlinewebfonts.com/icon -->
<!DOCTYPE svg PUBLIC "-//W3C//DTD SVG 1.1//EN" "http://www.w3.org/Graphics/SVG/1.1/DTD/svg11.dtd">
<svg version="1.1" xmlns="http://www.w3.org/2000/svg" xmlns:xlink="http://www.w3.org/1999/xlink" x="0px" y="0px" viewBox="0 0 1000 1000" enable-background="new 0 0 1000 1000" xml:space="preserve">
<metadata> Svg Vector Icons : http://www.onlinewebfonts.com/icon </metadata>
<g><path d="M785.3,724.1c-29.3,0-55-14.2-71.4-35.8c-16.1,17-13.8,89-13.8,89S721.4,990,523.6,990c-197.8,0-176.5-200.6-176.5-200.6V557h-39.6C131,497.7,124.9,275.9,124.9,275.9V127c0-80.5,56.3-79,56.3-79l24.3-1.5v0.9c1.5-0.3,2.9-0.9,4.6-0.9h45.7v-9.1c0-15.1,12.3-27.4,27.4-27.4c15.1,0,27.4,12.2,27.4,27.4v72.9c0,15.1-12.3,27.3-27.4,27.3c-15.1,0-27.4-12.2-27.4-27.3v-9.1h-45.7c-1.6,0-3-0.7-4.6-0.9v0.9c-16.7,0-13.7,22.8-13.7,22.8v165.6c1.5,158,141.5,212.7,141.5,212.7h47.6h8.7h47.6c0,0,140-54.7,141.5-212.7V124c0,0,3-22.8-13.7-22.8h-44.5c-3.2,0-6.3-0.8-9.1-1.8v11c0,15.1-12.3,27.3-27.4,27.3c-15.1,0-27.4-12.2-27.4-27.3V37.4c0-15.1,12.3-27.4,27.4-27.4c15.1,0,27.4,12.2,27.4,27.4v10.9c2.9-1,5.9-1.8,9.1-1.8h54.8c1.6,0,3,0.7,4.6,0.9l9.5,0.6c0,0,56.3-1.5,56.3,79v148.9c0,0-6.1,221.8-182.6,281.1h-39.6v246.1H419c4,112.8,70.8,123.1,109.2,123.1c39.6,0,111.1-1.5,111.1-158c0-100.2,33.6-136.1,57.9-149.1c7.3-42.1,43.9-74.3,88.2-74.3c49.6,0,89.8,40.2,89.8,89.7C875.1,684,834.9,724.1,785.3,724.1z"/></g>
</svg>